<svg width="87" height="85" viewBox="0 0 87 85" fill="none" xmlns="http://www.w3.org/2000/svg">
<g filter="url(#filter0_d_230_393)">
<path fill-rule="evenodd" clip-rule="evenodd" d="M12.6875 42.5C12.6875 25.8739 26.4827 12.3958 43.5 12.3958C60.5173 12.3958 74.3125 25.8739 74.3125 42.5C74.3125 59.1261 60.5173 72.6041 43.5 72.6041C26.4827 72.6041 12.6875 59.1261 12.6875 42.5ZM46.2188 24.7916C46.2188 23.3246 45.0015 22.1354 43.5 22.1354C41.9985 22.1354 40.7812 23.3246 40.7812 24.7916V42.5C40.7812 43.4158 41.2642 44.2671 42.0591 44.7525L52.9341 51.3931C54.2074 52.1706 55.8847 51.7924 56.6805 50.5484C57.4763 49.3044 57.0892 47.6656 55.8159 46.8881L46.2188 41.0278V24.7916Z" fill="#FFE5A3"/>
</g>
<defs>
<filter id="filter0_d_230_393" x="-4" y="0" width="95" height="93" filterUnits="userSpaceOnUse" color-interpolation-filters="sRGB">
<feFlood flood-opacity="0" result="BackgroundImageFix"/>
<feColorMatrix in="SourceAlpha" type="matrix" values="0 0 0 0 0 0 0 0 0 0 0 0 0 0 0 0 0 0 127 0" result="hardAlpha"/>
<feOffset dy="4"/>
<feGaussianBlur stdDeviation="2"/>
<feComposite in2="hardAlpha" operator="out"/>
<feColorMatrix type="matrix" values="0 0 0 0 0.834896 0 0 0 0 0.683326 0 0 0 0 0.683326 0 0 0 0.25 0"/>
<feBlend mode="normal" in2="BackgroundImageFix" result="effect1_dropShadow_230_393"/>
<feBlend mode="normal" in="SourceGraphic" in2="effect1_dropShadow_230_393" result="shape"/>
</filter>
</defs>
</svg>
