<svg width="345" height="159" viewBox="0 0 345 159" fill="none" xmlns="http://www.w3.org/2000/svg">
<path d="M29.25 101.53C20.37 101.53 12.45 99.88 5.49 96.58V86.77C12.57 90.49 20.49 92.35 29.25 92.35C33.87 92.35 37.26 91.42 39.42 89.56C41.58 87.7 42.66 85.24 42.66 82.18C42.66 79.24 41.67 77.02 39.69 75.52C37.71 74.02 34.71 72.73 30.69 71.65L24.57 69.94C21.09 68.92 18.09 67.75 15.57 66.43C13.05 65.11 10.92 63.19 9.18 60.67C7.5 58.09 6.66 54.76 6.66 50.68C6.66 44.08 8.61 39.07 12.51 35.65C16.41 32.23 21.9 30.52 28.98 30.52C33.24 30.52 36.96 30.91 40.14 31.69C43.38 32.41 46.65 33.58 49.95 35.2V44.74C43.59 41.38 36.6 39.7 28.98 39.7C21.18 39.7 17.28 43.12 17.28 49.96C17.34 52.96 18.24 55.18 19.98 56.62C21.78 58 24.69 59.23 28.71 60.31L34.92 62.02C38.64 63.04 41.79 64.24 44.37 65.62C47.01 67 49.14 69.01 50.76 71.65C52.44 74.23 53.28 77.62 53.28 81.82C53.22 87.94 51.06 92.77 46.8 96.31C42.54 99.79 36.69 101.53 29.25 101.53ZM107.585 49.96L85.9852 108.01C84.5452 111.97 83.1052 114.97 81.6652 117.01C80.2852 119.05 78.6352 120.49 76.7152 121.33C74.8552 122.17 72.3952 122.59 69.3352 122.59C67.1152 122.59 65.0452 122.32 63.1252 121.78V112.69C64.7452 113.05 66.3952 113.23 68.0752 113.23C70.2352 113.23 71.9152 112.66 73.1152 111.52C74.3752 110.38 75.6352 108.19 76.8952 104.95L78.7852 99.82L60.3352 49.96H70.9552L83.8252 86.32L97.4152 49.96H107.585ZM142.274 48.88C148.574 48.88 153.254 50.53 156.314 53.83C159.374 57.07 160.904 62.41 160.904 69.85V100H150.644V69.85C150.644 65.71 149.894 62.74 148.394 60.94C146.894 59.14 144.284 58.24 140.564 58.24C136.244 58.24 131.834 60.13 127.334 63.91V100H117.074V49.96H127.334V55C132.074 50.92 137.054 48.88 142.274 48.88Z" fill="#5B5B5B"/>
<path d="M233.15 93.056V102H196.6V36.812H206.748V93.056H233.15ZM243.937 32.512H253.741V45.498H243.937V32.512ZM243.937 54.184H253.741V102H243.937V54.184ZM284.716 37.07C282.824 37.07 281.534 37.4713 280.846 38.274C280.158 39.0767 279.814 40.5673 279.814 42.746V54.184H289.274V63.128H279.814V102H270.01V63.128H264.162V54.184H270.01V39.822C270.01 35.7513 271.014 32.7987 273.02 30.964C275.084 29.072 278.352 28.126 282.824 28.126C284.831 28.126 286.981 28.384 289.274 28.9V37.586C287.898 37.242 286.379 37.07 284.716 37.07ZM306.005 79.726C306.234 84.37 307.553 88.068 309.961 90.82C312.369 93.572 316.124 94.948 321.227 94.948C323.463 94.948 325.67 94.6613 327.849 94.088C330.027 93.4573 332.407 92.54 334.987 91.336L337.739 99.248C335.044 100.739 332.292 101.799 329.483 102.43C326.673 103.118 323.577 103.462 320.195 103.462C314.977 103.462 310.534 102.401 306.865 100.28C303.253 98.1587 300.501 95.1773 298.609 91.336C296.717 87.4947 295.771 83.0513 295.771 78.006C295.771 72.674 296.745 68.116 298.695 64.332C300.644 60.548 303.31 57.6813 306.693 55.732C310.075 53.7827 313.831 52.808 317.959 52.808C324.437 52.808 329.511 54.786 333.181 58.742C336.907 62.6407 338.771 68.3453 338.771 75.856V79.726H306.005ZM317.959 61.322C311.652 61.322 307.811 64.8193 306.435 71.814H328.451C328.164 68.202 327.161 65.5647 325.441 63.902C323.721 62.182 321.227 61.322 317.959 61.322Z" fill="#5B5B5B"/>
<path d="M206.197 79.0877C206.339 79.0853 206.41 79.084 206.455 79.1278C206.499 79.1715 206.5 79.2419 206.501 79.3826C206.538 85.2063 204.687 90.8883 201.221 95.5753C197.695 100.343 192.696 103.814 186.998 105.452C181.299 107.091 175.22 106.803 169.701 104.636C164.182 102.468 159.532 98.5408 156.472 93.4624C153.411 88.3841 152.111 82.4381 152.773 76.5459C153.434 70.6536 156.021 65.1441 160.131 60.8709C164.242 56.5976 169.647 53.7994 175.509 52.9096C181.272 52.0348 187.161 53.0526 192.292 55.8058C192.416 55.8723 192.478 55.9056 192.496 55.9657C192.514 56.0257 192.48 56.0878 192.411 56.2119L182.594 74.0334C182.526 74.1558 182.492 74.2171 182.435 74.2352C182.378 74.2533 182.313 74.2215 182.182 74.158C181.09 73.6254 179.859 73.4361 178.652 73.6192C177.347 73.8173 176.143 74.4405 175.227 75.3922C174.312 76.3439 173.736 77.5709 173.589 78.8832C173.441 80.1954 173.731 81.5196 174.413 82.6506C175.094 83.7816 176.13 84.6562 177.359 85.139C178.588 85.6217 179.942 85.6857 181.211 85.3209C182.48 84.9561 183.593 84.1829 184.378 83.1211C185.104 82.14 185.512 80.963 185.551 79.7481C185.556 79.6031 185.558 79.5306 185.601 79.4886C185.644 79.4465 185.714 79.4453 185.853 79.4428L206.197 79.0877Z" fill="#EBBAAF"/>
<path d="M161.483 69.5367C161.359 69.468 161.297 69.4336 161.237 69.4513C161.177 69.469 161.144 69.5309 161.077 69.6547C159.608 72.3982 158.767 75.4359 158.617 78.5472C158.463 81.7585 159.05 84.9622 160.332 87.9106C161.613 90.8589 163.557 93.4728 166.01 95.5501C168.464 97.6274 171.363 99.1124 174.482 99.8901C177.602 100.668 180.858 100.718 184 100.035C187.142 99.3533 190.085 97.9576 192.601 95.9562C195.117 93.9548 197.139 91.4015 198.51 88.4937C199.839 85.6763 200.523 82.5994 200.513 79.487C200.512 79.3466 200.512 79.2764 200.467 79.2325C200.422 79.1886 200.352 79.1898 200.21 79.1923L185.834 79.4432C185.694 79.4457 185.624 79.4469 185.581 79.4889C185.538 79.531 185.536 79.6035 185.531 79.7484C185.505 80.5632 185.312 81.3651 184.963 82.1044C184.572 82.9342 183.995 83.6629 183.277 84.234C182.559 84.8052 181.719 85.2035 180.822 85.3982C179.926 85.5929 178.996 85.5787 178.106 85.3567C177.216 85.1347 176.388 84.711 175.688 84.1181C174.988 83.5253 174.433 82.7794 174.068 81.938C173.702 81.0966 173.534 80.1823 173.578 79.2659C173.618 78.4494 173.824 77.6508 174.183 76.9189C174.246 76.7886 174.278 76.7235 174.26 76.6664C174.242 76.6092 174.181 76.5753 174.059 76.5075L161.483 69.5367Z" fill="#C07767"/>
</svg>
