<svg width="345" height="109" viewBox="0 0 345 109" fill="none" xmlns="http://www.w3.org/2000/svg">
<path d="M29.25 51.53C20.37 51.53 12.45 49.88 5.49 46.58V36.77C12.57 40.49 20.49 42.35 29.25 42.35C33.87 42.35 37.26 41.42 39.42 39.56C41.58 37.7 42.66 35.24 42.66 32.18C42.66 29.24 41.67 27.02 39.69 25.52C37.71 24.02 34.71 22.73 30.69 21.65L24.57 19.94C21.09 18.92 18.09 17.75 15.57 16.43C13.05 15.11 10.92 13.19 9.18 10.67C7.5 8.09 6.66 4.76 6.66 0.679997C6.66 -5.92 8.61 -10.93 12.51 -14.35C16.41 -17.77 21.9 -19.48 28.98 -19.48C33.24 -19.48 36.96 -19.09 40.14 -18.31C43.38 -17.59 46.65 -16.42 49.95 -14.8V-5.26C43.59 -8.62 36.6 -10.3 28.98 -10.3C21.18 -10.3 17.28 -6.88 17.28 -0.0400048C17.34 2.96 18.24 5.18 19.98 6.62C21.78 8 24.69 9.23 28.71 10.31L34.92 12.02C38.64 13.04 41.79 14.24 44.37 15.62C47.01 17 49.14 19.01 50.76 21.65C52.44 24.23 53.28 27.62 53.28 31.82C53.22 37.94 51.06 42.77 46.8 46.31C42.54 49.79 36.69 51.53 29.25 51.53ZM107.585 -0.0400048L85.9852 58.01C84.5452 61.97 83.1052 64.97 81.6652 67.01C80.2852 69.05 78.6352 70.49 76.7152 71.33C74.8552 72.17 72.3952 72.59 69.3352 72.59C67.1152 72.59 65.0452 72.32 63.1252 71.78V62.69C64.7452 63.05 66.3952 63.23 68.0752 63.23C70.2352 63.23 71.9152 62.66 73.1152 61.52C74.3752 60.38 75.6352 58.19 76.8952 54.95L78.7852 49.82L60.3352 -0.0400048H70.9552L83.8252 36.32L97.4152 -0.0400048H107.585ZM142.274 -1.12C148.574 -1.12 153.254 0.529999 156.314 3.83C159.374 7.07 160.904 12.41 160.904 19.85V50H150.644V19.85C150.644 15.71 149.894 12.74 148.394 10.94C146.894 9.14 144.284 8.24 140.564 8.24C136.244 8.24 131.834 10.13 127.334 13.91V50H117.074V-0.0400048H127.334V5C132.074 0.919999 137.054 -1.12 142.274 -1.12Z" fill="white"/>
<path d="M233.15 43.056V52H196.6V-13.188H206.748V43.056H233.15ZM243.937 -17.488H253.741V-4.502H243.937V-17.488ZM243.937 4.184H253.741V52H243.937V4.184ZM284.716 -12.93C282.824 -12.93 281.534 -12.5287 280.846 -11.726C280.158 -10.9233 279.814 -9.43267 279.814 -7.254V4.184H289.274V13.128H279.814V52H270.01V13.128H264.162V4.184H270.01V-10.178C270.01 -14.2487 271.014 -17.2013 273.02 -19.036C275.084 -20.928 278.352 -21.874 282.824 -21.874C284.831 -21.874 286.981 -21.616 289.274 -21.1V-12.414C287.898 -12.758 286.379 -12.93 284.716 -12.93ZM306.005 29.726C306.234 34.37 307.553 38.068 309.961 40.82C312.369 43.572 316.124 44.948 321.227 44.948C323.463 44.948 325.67 44.6613 327.849 44.088C330.027 43.4573 332.407 42.54 334.987 41.336L337.739 49.248C335.044 50.7387 332.292 51.7993 329.483 52.43C326.673 53.118 323.577 53.462 320.195 53.462C314.977 53.462 310.534 52.4013 306.865 50.28C303.253 48.1587 300.501 45.1773 298.609 41.336C296.717 37.4947 295.771 33.0513 295.771 28.006C295.771 22.674 296.745 18.116 298.695 14.332C300.644 10.548 303.31 7.68133 306.693 5.732C310.075 3.78266 313.831 2.808 317.959 2.808C324.437 2.808 329.511 4.786 333.181 8.742C336.907 12.6407 338.771 18.3453 338.771 25.856V29.726H306.005ZM317.959 11.322C311.652 11.322 307.811 14.8193 306.435 21.814H328.451C328.164 18.202 327.161 15.5647 325.441 13.902C323.721 12.182 321.227 11.322 317.959 11.322Z" fill="white"/>
<mask id="path-3-inside-1_195_327" fill="white">
<path d="M208.197 28.0878C208.339 28.0853 208.41 28.0841 208.455 28.1278C208.499 28.1716 208.5 28.2419 208.501 28.3826C208.538 34.2063 206.687 39.8884 203.221 44.5753C199.695 49.3428 194.696 52.8145 188.998 54.4525C183.299 56.0905 177.22 55.8035 171.701 53.6358C166.182 51.4681 161.532 47.5408 158.472 42.4625C155.411 37.3841 154.111 31.4381 154.773 25.5459C155.434 19.6537 158.021 14.1441 162.131 9.87089C166.242 5.59768 171.647 2.79939 177.509 1.9096C183.272 1.03482 189.161 2.05268 194.292 4.80585C194.416 4.87238 194.478 4.90564 194.496 4.96569C194.514 5.02574 194.48 5.08782 194.411 5.21197L184.594 23.0334C184.526 23.1559 184.492 23.2171 184.435 23.2352C184.378 23.2533 184.313 23.2216 184.182 23.158C183.09 22.6254 181.859 22.4361 180.652 22.6192C179.347 22.8174 178.143 23.4406 177.227 24.3922C176.312 25.3439 175.736 26.5709 175.589 27.8832C175.441 29.1954 175.731 30.5196 176.413 31.6506C177.094 32.7816 178.13 33.6562 179.359 34.139C180.588 34.6218 181.942 34.6857 183.211 34.3209C184.48 33.9561 185.593 33.1829 186.378 32.1212C187.104 31.14 187.512 29.963 187.551 28.7481C187.556 28.6032 187.558 28.5307 187.601 28.4886C187.644 28.4465 187.714 28.4453 187.853 28.4429L208.197 28.0878Z"/>
</mask>
<path d="M208.197 28.0878C208.339 28.0853 208.41 28.0841 208.455 28.1278C208.499 28.1716 208.5 28.2419 208.501 28.3826C208.538 34.2063 206.687 39.8884 203.221 44.5753C199.695 49.3428 194.696 52.8145 188.998 54.4525C183.299 56.0905 177.22 55.8035 171.701 53.6358C166.182 51.4681 161.532 47.5408 158.472 42.4625C155.411 37.3841 154.111 31.4381 154.773 25.5459C155.434 19.6537 158.021 14.1441 162.131 9.87089C166.242 5.59768 171.647 2.79939 177.509 1.9096C183.272 1.03482 189.161 2.05268 194.292 4.80585C194.416 4.87238 194.478 4.90564 194.496 4.96569C194.514 5.02574 194.48 5.08782 194.411 5.21197L184.594 23.0334C184.526 23.1559 184.492 23.2171 184.435 23.2352C184.378 23.2533 184.313 23.2216 184.182 23.158C183.09 22.6254 181.859 22.4361 180.652 22.6192C179.347 22.8174 178.143 23.4406 177.227 24.3922C176.312 25.3439 175.736 26.5709 175.589 27.8832C175.441 29.1954 175.731 30.5196 176.413 31.6506C177.094 32.7816 178.13 33.6562 179.359 34.139C180.588 34.6218 181.942 34.6857 183.211 34.3209C184.48 33.9561 185.593 33.1829 186.378 32.1212C187.104 31.14 187.512 29.963 187.551 28.7481C187.556 28.6032 187.558 28.5307 187.601 28.4886C187.644 28.4465 187.714 28.4453 187.853 28.4429L208.197 28.0878Z" fill="white" stroke="#C07767" stroke-width="6" stroke-linecap="round" mask="url(#path-3-inside-1_195_327)"/>
</svg>
