<svg width="74" height="74" viewBox="0 0 74 74" fill="none" xmlns="http://www.w3.org/2000/svg">
<path d="M63.1972 36.0877C63.3389 36.0853 63.4098 36.084 63.4546 36.1278C63.4994 36.1715 63.4998 36.2419 63.5007 36.3826C63.5376 42.2063 61.6866 47.8883 58.2208 52.5753C54.6954 57.3427 49.6962 60.8144 43.9977 62.4525C38.2992 64.0905 32.2196 63.8035 26.7008 61.6358C21.1819 59.4681 16.5321 55.5408 13.4717 50.4624C10.4112 45.3841 9.1111 39.4381 9.7727 33.5459C10.4343 27.6536 13.0207 22.1441 17.1312 17.8709C21.2416 13.5976 26.6466 10.7994 32.5087 9.90957C38.2719 9.03479 44.1605 10.0526 49.2925 12.8058C49.4165 12.8723 49.4785 12.9056 49.4962 12.9657C49.514 13.0257 49.4798 13.0878 49.4114 13.2119L39.5935 31.0334C39.526 31.1558 39.4923 31.2171 39.4352 31.2352C39.378 31.2533 39.3128 31.2215 39.1825 31.158C38.0898 30.6254 36.8587 30.4361 35.6522 30.6192C34.3467 30.8173 33.1429 31.4405 32.2275 32.3922C31.3121 33.3439 30.7361 34.5709 30.5887 35.8832C30.4414 37.1954 30.7309 38.5196 31.4125 39.6506C32.0941 40.7816 33.1296 41.6562 34.3587 42.139C35.5878 42.6217 36.9418 42.6857 38.2109 42.3209C39.48 41.9561 40.5933 41.1829 41.3784 40.1211C42.104 39.14 42.5118 37.963 42.5513 36.7481C42.556 36.6031 42.5584 36.5306 42.6011 36.4886C42.6438 36.4465 42.7137 36.4453 42.8535 36.4428L63.1972 36.0877Z" fill="#EBBAAF"/>
<path d="M18.4834 26.5367C18.3594 26.468 18.2974 26.4336 18.2372 26.4513C18.177 26.469 18.1438 26.5309 18.0775 26.6547C16.6077 29.3982 15.7667 32.4359 15.6172 35.5472C15.463 38.7585 16.0495 41.9622 17.3315 44.9106C18.6135 47.8589 20.5565 50.4728 23.0103 52.5501C25.4641 54.6274 28.3628 56.1124 31.4823 56.8901C34.6018 57.6679 37.8584 57.7176 41.0002 57.0355C44.142 56.3533 47.0848 54.9576 49.6008 52.9562C52.1169 50.9548 54.1389 48.4015 55.5103 45.4937C56.839 42.6763 57.5226 39.5994 57.5128 36.487C57.5123 36.3466 57.5121 36.2764 57.4673 36.2325C57.4224 36.1886 57.3515 36.1898 57.2097 36.1923L42.8336 36.4432C42.6938 36.4457 42.6239 36.4469 42.5812 36.4889C42.5384 36.531 42.5361 36.6035 42.5313 36.7484C42.5047 37.5632 42.3117 38.3651 41.963 39.1044C41.5717 39.9342 40.9946 40.6629 40.2766 41.234C39.5585 41.8052 38.7187 42.2035 37.8221 42.3982C36.9255 42.5929 35.9962 42.5787 35.1059 42.3567C34.2157 42.1347 33.3884 41.711 32.6882 41.1181C31.9879 40.5253 31.4334 39.7794 31.0676 38.938C30.7017 38.0966 30.5343 37.1823 30.5783 36.2659C30.6175 35.4494 30.8236 34.6508 31.1826 33.9189C31.2465 33.7886 31.2784 33.7235 31.2604 33.6664C31.2425 33.6092 31.1813 33.5753 31.059 33.5075L18.4834 26.5367Z" fill="#C07767"/>
</svg>
