<svg width="345" height="159" viewBox="0 0 345 159" fill="none" xmlns="http://www.w3.org/2000/svg">
<path d="M29.25 101.53C20.37 101.53 12.45 99.88 5.49 96.58V86.77C12.57 90.49 20.49 92.35 29.25 92.35C33.87 92.35 37.26 91.42 39.42 89.56C41.58 87.7 42.66 85.24 42.66 82.18C42.66 79.24 41.67 77.02 39.69 75.52C37.71 74.02 34.71 72.73 30.69 71.65L24.57 69.94C21.09 68.92 18.09 67.75 15.57 66.43C13.05 65.11 10.92 63.19 9.18 60.67C7.5 58.09 6.66 54.76 6.66 50.68C6.66 44.08 8.61 39.07 12.51 35.65C16.41 32.23 21.9 30.52 28.98 30.52C33.24 30.52 36.96 30.91 40.14 31.69C43.38 32.41 46.65 33.58 49.95 35.2V44.74C43.59 41.38 36.6 39.7 28.98 39.7C21.18 39.7 17.28 43.12 17.28 49.96C17.34 52.96 18.24 55.18 19.98 56.62C21.78 58 24.69 59.23 28.71 60.31L34.92 62.02C38.64 63.04 41.79 64.24 44.37 65.62C47.01 67 49.14 69.01 50.76 71.65C52.44 74.23 53.28 77.62 53.28 81.82C53.22 87.94 51.06 92.77 46.8 96.31C42.54 99.79 36.69 101.53 29.25 101.53ZM107.585 49.96L85.9852 108.01C84.5452 111.97 83.1052 114.97 81.6652 117.01C80.2852 119.05 78.6352 120.49 76.7152 121.33C74.8552 122.17 72.3952 122.59 69.3352 122.59C67.1152 122.59 65.0452 122.32 63.1252 121.78V112.69C64.7452 113.05 66.3952 113.23 68.0752 113.23C70.2352 113.23 71.9152 112.66 73.1152 111.52C74.3752 110.38 75.6352 108.19 76.8952 104.95L78.7852 99.82L60.3352 49.96H70.9552L83.8252 86.32L97.4152 49.96H107.585ZM142.274 48.88C148.574 48.88 153.254 50.53 156.314 53.83C159.374 57.07 160.904 62.41 160.904 69.85V100H150.644V69.85C150.644 65.71 149.894 62.74 148.394 60.94C146.894 59.14 144.284 58.24 140.564 58.24C136.244 58.24 131.834 60.13 127.334 63.91V100H117.074V49.96H127.334V55C132.074 50.92 137.054 48.88 142.274 48.88Z" fill="#5B5B5B"/>
<path d="M233.15 93.056V102H196.6V36.812H206.748V93.056H233.15ZM243.937 32.512H253.741V45.498H243.937V32.512ZM243.937 54.184H253.741V102H243.937V54.184ZM284.716 37.07C282.824 37.07 281.534 37.4713 280.846 38.274C280.158 39.0767 279.814 40.5673 279.814 42.746V54.184H289.274V63.128H279.814V102H270.01V63.128H264.162V54.184H270.01V39.822C270.01 35.7513 271.014 32.7987 273.02 30.964C275.084 29.072 278.352 28.126 282.824 28.126C284.831 28.126 286.981 28.384 289.274 28.9V37.586C287.898 37.242 286.379 37.07 284.716 37.07ZM306.005 79.726C306.234 84.37 307.553 88.068 309.961 90.82C312.369 93.572 316.124 94.948 321.227 94.948C323.463 94.948 325.67 94.6613 327.849 94.088C330.027 93.4573 332.407 92.54 334.987 91.336L337.739 99.248C335.044 100.739 332.292 101.799 329.483 102.43C326.673 103.118 323.577 103.462 320.195 103.462C314.977 103.462 310.534 102.401 306.865 100.28C303.253 98.1587 300.501 95.1773 298.609 91.336C296.717 87.4947 295.771 83.0513 295.771 78.006C295.771 72.674 296.745 68.116 298.695 64.332C300.644 60.548 303.31 57.6813 306.693 55.732C310.075 53.7827 313.831 52.808 317.959 52.808C324.437 52.808 329.511 54.786 333.181 58.742C336.907 62.6407 338.771 68.3453 338.771 75.856V79.726H306.005ZM317.959 61.322C311.652 61.322 307.811 64.8193 306.435 71.814H328.451C328.164 68.202 327.161 65.5647 325.441 63.902C323.721 62.182 321.227 61.322 317.959 61.322Z" fill="#5B5B5B"/>
</svg>
